<svg xmlns="http://www.w3.org/2000/svg" width="199" height="27" fill="none"><g clip-path="url(#a)"><mask id="b" width="199" height="27" x="0" y="0" maskUnits="userSpaceOnUse" style="mask-type:luminance"><path fill="#fff" d="M198.975.852H.023v25.296h198.952V.852Z"/></mask><g fill="#0A2540" mask="url(#b)"><path d="M46.994 18.06v1.764h-9.026V7.176h2.05V18.06h6.976Zm11.902-1.551h-5.328l-1.207 3.315h-2.109l4.772-12.648h2.453l4.772 12.648h-2.165l-1.188-3.315Zm-.614-1.667-1.457-4.063-.575-1.82h-.057l-.536 1.782-1.495 4.1h4.12Zm11.899.134v4.848h-2.05v-4.848l-4.504-7.8h2.28l2.262 4.062.997 1.898.996-1.898 2.243-4.062h2.3l-4.524 7.8Zm18.301 3.084v1.764h-9.429V7.176h9.16v1.763h-7.11v3.641h5.558v1.726h-5.558v3.756h7.378l.001-.001Zm9.811-3.295h-2.722v5.06H93.54V7.174h5.155c2.722 0 4.427 1.419 4.427 3.795 0 1.82-.996 3.085-2.682 3.565l3.43 5.29h-2.358l-3.219-5.06Zm-2.722-1.707h2.951c1.667 0 2.472-.67 2.472-2.069s-.805-2.069-2.472-2.069h-2.95v4.14-.002Zm32.041-5.882v12.648h-2.069v-5.52h-6.247v5.52h-2.05V7.176h2.05v5.365h6.247V7.176h2.069Zm15.465 10.884v1.764h-9.428V7.176h9.16v1.763H135.7v3.641h5.557v1.726H135.7v3.756h7.377v-.001Zm12.206-1.551h-5.327l-1.207 3.315h-2.109l4.773-12.648h2.452l4.772 12.648h-2.165l-1.188-3.315h-.001Zm-.613-1.667-1.457-4.063-.576-1.82h-.057l-.536 1.782-1.495 4.1h4.121Zm17.533 3.218v1.764h-9.025V7.176h2.05V18.06h6.975Zm11.652-9.121h-4.331v10.885h-2.051V8.94h-4.33V7.176h10.714v1.763h-.002Zm15.121-1.763v12.648h-2.069v-5.52h-6.249v5.52h-2.049V7.176h2.049v5.365h6.249V7.176h2.069ZM25.32 9.886 12.672.852.023 9.886l5.06 3.614-5.06 3.613 12.649 9.035 12.648-9.035-5.06-3.613 5.06-3.614ZM15.201 20.727l-2.53 1.808-2.529-1.808-2.53-1.807-2.53-1.808 2.53-1.807 2.53 1.807 2.53 1.808 2.53-1.808 2.53 1.808-2.53 1.807Zm2.53-9.035-2.53-1.807-2.53 1.807 2.53 1.808-2.53 1.807-2.529-1.807-2.53-1.808-2.53-1.807 2.53-1.807 2.53 1.807 2.53-1.807-2.53-1.808 2.53-1.807 2.53 1.807 2.53 1.808 2.529 1.807-2.53 1.807Z"/></g></g><defs><clipPath id="a"><path fill="#fff" d="M0 .852h199v25.297H0z"/></clipPath></defs></svg>